<?xml version="1.0" encoding="UTF-8"?>
<svg xmlns="http://www.w3.org/2000/svg" xmlns:xlink="http://www.w3.org/1999/xlink" viewBox="0 0 48 48" version="1.1" width="96px" height="96px">
<g id="surface1">
<path style=" fill:#1976D2;" d="M 0 12 L 0 36 L 25 36 L 48 12 Z "/>
<path style=" fill:#FFFFFF;" d="M 27.5 18 L 23 18 L 23 27.5 L 19.199219 18 L 15.699219 18 L 12.613281 25.882813 C 12.207031 24.132813 10.351563 23.464844 9.199219 23.199219 C 6.199219 22.398438 6 22 6 21.398438 C 6 19.898438 10 20.601563 11 21 C 11.300781 20.199219 11.898438 18.699219 11.898438 18.699219 C 11.898438 18.699219 10.800781 18 7.398438 18 C 4 18 3 20.101563 3 21.398438 C 3 22.699219 3.699219 24.199219 5.601563 24.800781 C 7.601563 25.398438 9.101563 25.5 9.101563 26.5 C 9.101563 27.5 5.699219 27.699219 3.800781 26.5 L 3 29.101563 C 3 29.101563 4.101563 30 7.398438 30 C 9.179688 30 10.566406 29.496094 11.480469 28.773438 L 11 30 L 14.5 30 L 15.101563 28.199219 C 15.800781 28.5 16.601563 28.699219 17.5 28.699219 C 18.398438 28.699219 19.199219 28.5 19.898438 28.199219 L 20.5 30 L 26 30 L 26 27 L 27.5 27 C 30 27 32 25 32 22.5 C 32 20 30 18 27.5 18 Z M 17.5 26.101563 C 16.898438 26.101563 16.398438 26 16 25.699219 L 17.5 21.398438 L 19 25.699219 C 18.601563 26 18.101563 26.101563 17.5 26.101563 Z M 27.5 24 L 26 24 L 26 21 L 27.5 21 C 28.300781 21 29 21.699219 29 22.5 C 29 23.300781 28.300781 24 27.5 24 Z "/>
</g>
</svg>
